<svg xmlns="http://www.w3.org/2000/svg" width="865" height="825" viewBox="0 0 865 825">
  <g id="Group_7" data-name="Group 7" transform="translate(-1056 -1195)">
    <g id="Group_4" data-name="Group 4" transform="translate(-2160 -127)">
      <g id="Group_3" data-name="Group 3" transform="translate(3216 1322)">
        <rect id="Rectangle_110" data-name="Rectangle 110" width="865" height="825" transform="translate(0)" fill="none"/>
        <rect id="Rectangle_111" data-name="Rectangle 111" width="859" height="111" transform="translate(0 714)" fill="none"/>
        <ellipse id="Ellipse_1" data-name="Ellipse 1" cx="312.473" cy="28.115" rx="312.473" ry="28.115" transform="translate(235.417 657.066)" fill="#004ba7"/>
        <g id="Group_4-2" data-name="Group 4" transform="translate(394.908 58.537)">
          <path id="Rectangle_112" data-name="Rectangle 112" d="M0,0H339.167V229.719H0Z" transform="translate(339.167 229.719) rotate(180)" fill="#d4e2f1"/>
          <rect id="Rectangle_113" data-name="Rectangle 113" width="100.427" height="109.448" transform="translate(217.092 21.048)" fill="#f2f2f2"/>
          <rect id="Rectangle_114" data-name="Rectangle 114" width="96.818" height="6.615" transform="translate(155.151 27.662) rotate(180)" fill="#f2f2f2"/>
          <rect id="Rectangle_117" data-name="Rectangle 117" width="139.516" height="6.615" transform="translate(178.003 51.717) rotate(180)" fill="#f2f2f2"/>
          <rect id="Rectangle_118" data-name="Rectangle 118" width="139.516" height="6.615" transform="translate(178.003 70.359) rotate(180)" fill="#f2f2f2"/>
          <rect id="Rectangle_119" data-name="Rectangle 119" width="139.516" height="6.615" transform="translate(178.003 89.002) rotate(180)" fill="#f2f2f2"/>
          <rect id="Rectangle_120" data-name="Rectangle 120" width="139.516" height="6.615" transform="translate(178.003 107.644) rotate(180)" fill="#f2f2f2"/>
          <rect id="Rectangle_121" data-name="Rectangle 121" width="139.516" height="6.615" transform="translate(178.003 126.285) rotate(180)" fill="#f2f2f2"/>
          <rect id="Rectangle_122" data-name="Rectangle 122" width="139.516" height="6.615" transform="translate(178.003 144.927) rotate(180)" fill="#f2f2f2"/>
          <rect id="Rectangle_123" data-name="Rectangle 123" width="139.516" height="6.615" transform="translate(178.003 163.57) rotate(180)" fill="#f2f2f2"/>
          <path id="Path_67" data-name="Path 67" d="M843.574,227.381a17.763,17.763,0,0,1,4.863-2.439,124,124,0,0,1,34.263-7.459c10.188-.722,21.23.136,29.188,6.539a10.037,10.037,0,0,1,2.961,3.449c1,2.16.7,4.671.374,7.03a7.943,7.943,0,0,1-.682,2.647c-1.071,2.039-3.707,2.753-6,2.509s-4.439-1.213-6.7-1.663a29.933,29.933,0,0,0-4.23-.431L883.45,236.8c-8.809-.477-17.734-.946-26.374.832a26.273,26.273,0,0,0-7.62,2.626c-1.974,1.108-3.3,2.7-5.134.651C841.1,237.311,839.324,230.7,843.574,227.381Z" transform="translate(-611.4 -143.837)" fill="#2f2e41"/>
          <path id="Path_68" data-name="Path 68" d="M870.549,236.815s19.054-8.541,26.281,1.314-3.942,5.913-3.942,5.913L880.4,247.984l-13.8-2.628Z" transform="translate(-616.424 -147.006)" fill="#f2f2f2"/>
          <path id="Path_69" data-name="Path 69" d="M872.741,228.437s2.628,12.483.657,15.768,11.169,7.884,11.169,7.884l12.483-5.256s-3.285-20.368,0-24.31Z" transform="translate(-617.631 -144.87)" fill="#ffb9b9"/>
          <path id="Path_70" data-name="Path 70" d="M872.741,228.437s2.628,12.483.657,15.768,11.169,7.884,11.169,7.884l12.483-5.256s-3.285-20.368,0-24.31Z" transform="translate(-617.631 -144.87)" opacity="0.1"/>
          <path id="Path_71" data-name="Path 71" d="M900.712,209.518A19.727,19.727,0,0,1,881,229.228a19.235,19.235,0,0,1-3.5-.315,19.71,19.71,0,1,1,23.213-19.4Z" transform="translate(-615.378 -138.434)" fill="#ffb9b9"/>
          <path id="Path_72" data-name="Path 72" d="M909.787,278.863h-62.86l1.425-6.188,6.17-26.887,7.132-4.817.006-.006,3.35-2.267,1.666-1.125s.986.451,2.123,1.064c.331.186.667.379,1,.583.006-.006.006,0,.006,0a11.769,11.769,0,0,1,1.552,1.076c.09.084.168.156.247.235,1.251,1.251,4.9,7.89,10.939,4.492a9.193,9.193,0,0,0,.884-.553,43.74,43.74,0,0,0,4.492-3.566c1.269-1.161,2.093-2.057,2.766-2.676a4.371,4.371,0,0,1,1.022-.758,1.943,1.943,0,0,1,.92-.222c1.973,0,4.6,3.939,4.6,3.939l.078.229.006.018,8.293,24.9Z" transform="translate(-612.553 -147.767)" fill="#f2f2f2"/>
          <path id="Path_73" data-name="Path 73" d="M844.056,277.851h19.051a46.36,46.36,0,0,0-.343-6.591c-.583-4.4-2.015-8.629-2.917-12.971a54.555,54.555,0,0,1-1.148-11.57c.006-.535.018-1.076.066-1.618a7.406,7.406,0,0,1,1.04-3.512c.451-.692,1.07-1.281,1.551-1.942a4.455,4.455,0,0,0,.439-.692v-.006a3.984,3.984,0,0,0,.162-.367,2.973,2.973,0,0,0,.181-.9c.108-1.984-1.69-3.9-3.632-4.715a13.58,13.58,0,0,0-8.509-.343,40.508,40.508,0,0,0-8,3.271c-.86.421-1.714.854-2.538,1.335a12.6,12.6,0,0,0-2.688,2.045c-2.045,2.111-2.941,5.051-3.662,7.9a16.691,16.691,0,0,0-.692,6.735c.006.072.024.15.036.223.716,3.746,3.771,6.561,5.4,10.013,1.888,4.005,1.762,8.672,1.01,13.037-.036.223-.078.445-.12.668h5.31Z" transform="translate(-609.681 -146.755)" fill="#2f2e41"/>
          <path id="Path_74" data-name="Path 74" d="M934.525,252.678a148.891,148.891,0,0,0-5.19,24.06H902.178q-1.064-2.9-2.123-5.815a43.572,43.572,0,0,1-1.449-4.474,21.417,21.417,0,0,1-.607-5.388c0-.433.018-.872.054-1.3a.018.018,0,0,0,0-.024,21.523,21.523,0,0,1,1.57-6.657,24.822,24.822,0,0,1,1.383-2.808c1.263-2.285,2.79-4.438,4.149-6.675a30.636,30.636,0,0,0,2.207-4.282.022.022,0,0,1,.006-.018,15.37,15.37,0,0,0,1.245-5.983c-.042-2.652-4.528-7.276.349-6.831,6.657.6,12.376,4.432,17.59,8.8,1.389,1.167,2.748,2.375,4.077,3.566,2.057,1.852,4.228,3.873,4.847,6.573a7,7,0,0,1,.174,1.311A18,18,0,0,1,934.525,252.678Z" transform="translate(-622.599 -145.642)" fill="#2f2e41"/>
          <path id="Path_75" data-name="Path 75" d="M887.328,248.028a14.684,14.684,0,0,0-3.083-4.972,11.439,11.439,0,0,0-4.71-2.386,25.76,25.76,0,0,0-6.909-.99c-2.782-.017-6.009.729-7.19,3.248-.938,2-.211,4.369.734,6.367a6.241,6.241,0,0,0,1.948,2.631c1.2.811,2.752.785,4.174,1.057a19.254,19.254,0,0,1,6.17,2.8l4.874,2.946,8.371,5.06c-.221-.133-.142-5.874-.4-6.815C890.478,253.94,888.613,250.9,887.328,248.028Z" transform="translate(-616.108 -148.245)" fill="#ffb9b9"/>
          <path id="Path_76" data-name="Path 76" d="M898.651,196.734a5,5,0,0,0-2.17-2.832,11.486,11.486,0,0,0-.458-3.738c-1.194-3.529-4.021-3.327-6.69-4.887-1.158-.677-1.086-1.275-1.689-2.387a8.861,8.861,0,0,0-3.414-3.483c-1.712-1.091-3.519-2.214-5.544-2.352-4.255-.29-7.518,3.713-11.586,5-1.793.566-3.719.59-5.521,1.125s-3.6,1.813-3.869,3.674c-.124.859.095,1.74-.031,2.6-.25,1.707-1.748,2.9-2.75,4.306-2.217,3.1-1.963,7.491-.19,10.869a15.27,15.27,0,0,0,1.278,2,12.3,12.3,0,0,0,1.35,4.57c1.773,3.378,4.823,5.9,8.01,8a18.912,18.912,0,0,1-.473-3.411,2.355,2.355,0,0,1,.145-1.13c.355-.742,1.293-.939,2.008-1.346,1.481-.842,2.062-2.7,2.1-4.407s-.318-3.408-.14-5.1a2.788,2.788,0,0,1,.954-2.051,3.3,3.3,0,0,1,1.8-.429c3.034-.124,6.2-.18,8.881-1.614a13.165,13.165,0,0,1,2.764-1.4c2.274-.593,4.6,1,5.91,2.952s1.964,4.273,3.174,6.289,3.3,3.813,5.637,3.574a.936.936,0,0,0,.7-.311,1.047,1.047,0,0,0,.129-.6l.131-8.939a13.508,13.508,0,0,0-.451-4.543Z" transform="translate(-613.814 -135.922)" fill="#2f2e41"/>
          <path id="Path_77" data-name="Path 77" d="M841.173,270.675q.64,5.277.776,10.59H825.411v-13.9c.084-.337.174-.668.283-1,1.034-3.187,3.205-5.857,5.087-8.629.09-.138.186-.277.277-.415a22.585,22.585,0,0,0,2.057-3.71c.271-.637.7-3.722,1.161-3.987,1.96-1.137,3.554,3.722,3.825,4.8.962,3.855,1.8,7.746,2.43,11.672Q840.9,268.387,841.173,270.675Z" transform="translate(-608.32 -150.168)" fill="#2f2e41"/>
          <path id="Path_78" data-name="Path 78" d="M937.028,280.358H899.063c-.325-.764-.643-1.527-.98-2.285a66.812,66.812,0,0,0-9.1-14.932,3.951,3.951,0,0,1-1.125-2.231,1.887,1.887,0,0,1,.247-1c.577-1.076,2.1-1.708,3.344-2.219a11.521,11.521,0,0,0,3.476-2.189,7.454,7.454,0,0,0,2.009-2.965,6.517,6.517,0,0,0,.253-1.022l.529.691q.641.848,1.3,1.684c4.21,5.406,8.834,10.734,14.649,13.939a24.649,24.649,0,0,0,4.787,2.039,1.256,1.256,0,0,0,1.01,0,1.222,1.222,0,0,0,.439-.806c.517-2.165.7-4.4,1.077-6.591a37.545,37.545,0,0,1,3.963-11.414c1.076-2,4.576-9.321,6.8-4.709q.956,1.993,1.924,4c.4.848.812,1.69,1.221,2.538a15.783,15.783,0,0,1,1.978,8.84Q936.943,271.049,937.028,280.358Z" transform="translate(-620.604 -149.261)" fill="#2f2e41"/>
          <path id="Path_79" data-name="Path 79" d="M845.727,285.355h3.289l-1.864-6.188-2.688-8.918a29.089,29.089,0,0,1-.258,4.516,30.072,30.072,0,0,1-2.622,8.924c-.259.547-.535,1.1-.758,1.666Z" transform="translate(-611.352 -154.259)" opacity="0.1"/>
          <path id="Path_80" data-name="Path 80" d="M929.6,265.38a6.422,6.422,0,0,0,.315,3.9,39.329,39.329,0,0,1,1.433,11.412.415.415,0,0,1-.486.5c-1.517.093-3.253.1-4.282-1.015Z" transform="translate(-628.223 -153.301)" opacity="0.1"/>
        </g>
        <g id="Group_3-2" data-name="Group 3" transform="translate(1 60.901)">
          <path id="Rectangle_124" data-name="Rectangle 124" d="M0,0H339.167V229.719H0Z" fill="#d4e2f1"/>
          <rect id="Rectangle_125" data-name="Rectangle 125" width="100.427" height="109.448" transform="translate(21.649 21.048)" fill="#f2f2f2"/>
          <rect id="Rectangle_126" data-name="Rectangle 126" width="96.818" height="6.615" transform="translate(184.016 21.048)" fill="#f2f2f2"/>
          <rect id="Rectangle_129" data-name="Rectangle 129" width="139.516" height="6.615" transform="translate(161.165 45.102)" fill="#f2f2f2"/>
          <rect id="Rectangle_130" data-name="Rectangle 130" width="139.516" height="6.615" transform="translate(161.165 63.745)" fill="#f2f2f2"/>
          <rect id="Rectangle_131" data-name="Rectangle 131" width="139.516" height="6.615" transform="translate(161.165 82.387)" fill="#f2f2f2"/>
          <rect id="Rectangle_132" data-name="Rectangle 132" width="139.516" height="6.615" transform="translate(161.165 101.028)" fill="#f2f2f2"/>
          <rect id="Rectangle_133" data-name="Rectangle 133" width="139.516" height="6.615" transform="translate(161.165 119.671)" fill="#f2f2f2"/>
          <rect id="Rectangle_134" data-name="Rectangle 134" width="139.516" height="6.615" transform="translate(161.165 138.313)" fill="#f2f2f2"/>
          <rect id="Rectangle_135" data-name="Rectangle 135" width="139.516" height="6.615" transform="translate(161.165 156.956)" fill="#f2f2f2"/>
          <path id="Path_81" data-name="Path 81" d="M208.623,282.693H195.567q-1.506-4.05-2.676-8.2a16.386,16.386,0,0,0-4.258-8.678,16.1,16.1,0,0,1-1.834-2.49,11.693,11.693,0,0,1-1.155-7.09,18.424,18.424,0,0,1,.337-2.009c.571-2.568,1.527-5.033,2.327-7.535a2.858,2.858,0,0,1,2.333-1.93,4.628,4.628,0,0,1,2.55.3,3.167,3.167,0,0,1,.511.265c1.425.86,2.165,2.616,2.76,4.222q4.086,10.969,8.166,21.938.794,2.129,1.588,4.27c.782,2.093,1.557,4.185,2.219,6.32C208.5,282.278,208.563,282.482,208.623,282.693Z" transform="translate(-89.277 -151.596)" fill="#d0cde1"/>
          <path id="Path_82" data-name="Path 82" d="M140.83,171.745c-3.246,1.1-6.187,3.66-6.852,7.021-.308,1.558-.119,3.178-.379,4.744-.6,3.634-3.454,6.409-6.085,8.987s-5.348,5.573-5.54,9.251c-.21,4.028,2.711,7.8,2.205,11.8-.587,4.649-5.5,7.661-6.711,12.187-.811,3.022.183,6.278,1.817,8.946,3.114,5.085,8.436,8.537,14.1,10.388s11.7,2.24,17.667,2.3c7.26.076,15.142-.547,20.6-5.339a16.5,16.5,0,0,0,5.478-10.742c.518-5.55-1.8-11.285-.2-16.625,1.006-3.361,3.527-6.43,3.151-9.918-.368-3.41-3.346-5.827-5.39-8.582a34.885,34.885,0,0,1-4.2-8.6l-3.882-10.247c-.763-2.014-1.6-4.133-3.3-5.455-3.184-2.475-8.3-1.989-12.026-1.478C147.829,170.858,144.152,170.623,140.83,171.745Z" transform="translate(-75.835 -136.896)" fill="#2f2e41"/>
          <path id="Path_83" data-name="Path 83" d="M150.138,213.669s.38,11.4-.76,12.539,4.559,8.74,4.559,8.74l10.259-.38,5.32-4.18-4.56-6.08s-1.9-9.879-.38-12.159S150.138,213.669,150.138,213.669Z" transform="translate(-82.139 -145.05)" fill="#a0616a"/>
          <path id="Path_84" data-name="Path 84" d="M150.138,213.669s.38,11.4-.76,12.539,4.559,8.74,4.559,8.74l10.259-.38,5.32-4.18-4.56-6.08s-1.9-9.879-.38-12.159S150.138,213.669,150.138,213.669Z" transform="translate(-82.139 -145.05)" opacity="0.1"/>
          <circle id="Ellipse_2" data-name="Ellipse 2" cx="13.679" cy="13.679" r="13.679" transform="translate(60.589 45.631)" fill="#a0616a"/>
          <path id="Path_85" data-name="Path 85" d="M155.831,278.846H166.92c.415-.752.806-1.533,1.257-2.243v0a6.139,6.139,0,0,1,2.021-2.117,7.959,7.959,0,0,0,1.5-.9,3.862,3.862,0,0,0,.914-1.708,26.467,26.467,0,0,0,1.251-7.373c.018-.842,0-1.7.048-2.538a10.665,10.665,0,0,1,.253-1.954,15.391,15.391,0,0,1,1.636-3.71q2.255-4.1,4.522-8.209a5.737,5.737,0,0,0,.307-2.4,5.929,5.929,0,0,0-.974-3.085c-.21-.379-.439-.758-.68-1.125a24.977,24.977,0,0,0-3.223-4.113,26.077,26.077,0,0,0-9.177-6.212,5.326,5.326,0,0,1-1.233-.6,5.117,5.117,0,0,1-1.131-1.353c-1.2-1.81-2.67-3.849-4.841-3.734a2.976,2.976,0,0,0-2.3-.156,3.145,3.145,0,0,0-.337.108,21.372,21.372,0,0,0-2.411,1.257,11.194,11.194,0,0,1-6.495,1.179,2.2,2.2,0,0,1-.758-.192,3.883,3.883,0,0,1-.7-.565,4.01,4.01,0,0,0-3.987-.637,3.62,3.62,0,0,0-1.588,1.119c-.4.5-.674,1.1-1.113,1.57-1.137,1.215-3.013,1.263-4.673,1.257a43.183,43.183,0,0,0-10.265.944,19.514,19.514,0,0,0-8.082,3.909l-.006.006c-.325.277-.625.559-.926.86a6.864,6.864,0,0,0-1.6,2.285c-.457,1.179-.4,2.508-.812,3.7-.457,1.341-1.473,2.436-1.882,3.783a15.21,15.21,0,0,1-.788,3.079c.024.018.042.036.066.054,2.189,1.924,4.059,4.45,6.254,6.356a12.621,12.621,0,0,1,3.175,3.548,5.86,5.86,0,0,1,.391.962,14.8,14.8,0,0,1,.325,3.5c.277,5.623,3.326,10.722,6.735,15.2.066.09.132.18.2.265Z" transform="translate(-74.551 -147.749)" fill="#d0cde1"/>
          <path id="Path_86" data-name="Path 86" d="M117.753,264.172q-.776,5.385-1.564,10.764a46.9,46.9,0,0,1-1.07,5.7c-.313,1.161-.716,2.3-1,3.458H98.461a15,15,0,0,1,.15-1.942,32.114,32.114,0,0,1,1.954-6.741q2.733-7.379,5.46-14.769c.776-2.1,1.443-4.294,2.3-6.374.15-.385.313-.77.487-1.143.908-2,3.428-1.179,5.292-.878a5.025,5.025,0,0,1,1.479.421,3.817,3.817,0,0,1,1.389,1.311c1.768,2.616,1.383,6.074.926,9.2Q117.825,263.676,117.753,264.172Z" transform="translate(-72.152 -152.998)" fill="#d0cde1"/>
          <path id="Path_87" data-name="Path 87" d="M179.24,289.2c.024.084.283.98.71,2.243H166.894c6.471-1.113,12.346-2.249,12.346-2.249Z" transform="translate(-85.614 -160.351)" fill="#2f2e41"/>
          <ellipse id="Ellipse_3" data-name="Ellipse 3" cx="14.819" cy="7.979" rx="14.819" ry="7.979" transform="translate(60.589 43.351)" fill="#2f2e41"/>
        </g>
        <path id="Path_100" data-name="Path 100" d="M1028.2,690.649c0,43-59.94,29.7-133.33,29.7s-132.438,13.3-132.438-29.7,59.931-52.355,133.322-52.355S1028.2,647.647,1028.2,690.649Z" transform="translate(-200.773 -34.127)" opacity="0.1"/>
        <path id="Path_101" data-name="Path 101" d="M1028.2,680.649c0,43-59.94,29.7-133.33,29.7s-132.438,13.3-132.438-29.7,59.931-52.355,133.322-52.355S1028.2,637.647,1028.2,680.649Z" transform="translate(-200.773 -32.159)" fill="#3f3d56"/>
        <path id="Path_102" data-name="Path 102" d="M772.929,525.762l-2.716,3.154s-33.024,3.1-31.683,8.462,39.76-7.148,39.76-7.148Z" transform="translate(-196.406 -11.988)" fill="#ffc1c7"/>
        <path id="Path_103" data-name="Path 103" d="M842.54,522.425s-35.293,12.509-54.5,7.148l8.935,17.87s45.568-1.34,53.61-9.382S842.54,522.425,842.54,522.425Z" transform="translate(-206.083 -11.332)" fill="#a4bcea"/>
        <circle id="Ellipse_6" data-name="Ellipse 6" cx="23.678" cy="23.678" r="23.678" transform="translate(588.871 367.91)" fill="#ffc1c7"/>
        <path id="Path_105" data-name="Path 105" d="M842.308,398.676a18.472,18.472,0,0,0,3.068,4.252,38.728,38.728,0,0,0,11.413,8.54,388.927,388.927,0,0,1-40.665,6.047c1.442-5.076-.456-10.5-3.006-15.125s-5.8-8.925-7.4-13.955l16,.43c2.9.078,5.817.165,8.72.023,2.17-.106,5.785-1.406,7.81-.927C842.537,388.973,840.438,394.878,842.308,398.676Z" transform="translate(-209.557 15.142)" fill="#ffc1c7"/>
        <path id="Path_106" data-name="Path 106" d="M875.725,538.025l13.4,16.083s22.337,52.269-26.358,57.63-84.882-4.021-84.882-4.021-19.657-9.382-20.1-2.234-2.234,27.252-12.956,46.908l-9.382,21.444s-4.914,4.914-3.574,11.615-29.932,8.935-29.485,0c0,0,4.467-7.595,4.467-12.062S714,658.2,714,658.2l12.956-64.331s-.893-33.059,29.485-26.8,73.713-1.34,73.713-1.34l9.828-34.4Z" transform="translate(-189.198 -13.083)" fill="#2f2e41"/>
        <path id="Path_107" data-name="Path 107" d="M875.725,538.025l13.4,16.083s22.337,52.269-26.358,57.63-84.882-4.021-84.882-4.021-19.657-9.382-20.1-2.234-2.234,27.252-12.956,46.908l-9.382,21.444s-4.914,4.914-3.574,11.615-29.932,8.935-29.485,0c0,0,4.467-7.595,4.467-12.062S714,658.2,714,658.2l12.956-64.331s-.893-33.059,29.485-26.8,73.713-1.34,73.713-1.34l9.828-34.4Z" transform="translate(-189.198 -13.083)" opacity="0.1"/>
        <path id="Path_108" data-name="Path 108" d="M815.362,537.317s40.877-15.353,63.661,17.26c0,0,5.808,50.482-17.423,52.716s-53.61,1.787-60.758-5.808-52.269-29.039-52.269-29.039-22.461-11.457-26.866,3.43-4.853,18.461-4.853,18.461-23.231,16.976-32.612,20.1c0,0-6.254,8.935-9.828,8.935s-25.465,4.914-23.231-11.615L687.369,578.7l36.186-35.293s10.275-15.189,36.633-7.148a544.953,544.953,0,0,0,53.163,12.956Z" transform="translate(-179.114 -13.551)" fill="#2f2e41"/>
        <path id="Path_109" data-name="Path 109" d="M721.824,721.764s8.488,21.444,1.34,24.124-22.337.893-22.337.893-17.87-2.234-22.337-1.787-22.784-3.127-20.1-10.275,16.53-5.361,16.53-5.361l12.509-5.808s1.34-4.467,4.467-2.68S703.955,729.358,721.824,721.764Z" transform="translate(-180.653 -50.288)" fill="#cbceda"/>
        <path id="Path_110" data-name="Path 110" d="M666.886,640.7s9.382,21-5.808,19.21-26.8-4.914-31.272-5.361c-4.3-.43-16.449-4.58-14.585-12.848a7.361,7.361,0,0,0,.121-1.623c0-1.11,1.508-3.288,13.57-2.953,0,0,8.935,0,12.509-6.254C641.421,630.876,654.823,647.852,666.886,640.7Z" transform="translate(-172.229 -32.667)" fill="#cbceda"/>
        <path id="Path_111" data-name="Path 111" d="M805.834,418.46s32.166-20.1,58.971,0S909.48,530.147,909.48,530.147L847.38,516.3s-2.68-10.722-6.254-12.509-4.021-9.382-4.021-9.382-19.21-5.808-17.87-28.145S805.834,418.46,805.834,418.46Z" transform="translate(-209.528 10.879)" fill="#a4bcea"/>
        <path id="Path_112" data-name="Path 112" d="M816.7,421.76H800.167S790.339,432.929,789,461.074l-5.361,22.337s-11.169,26.8-4.467,31.272,19.657,4.021,22.337-4.914,21-60.758,21-60.758Z" transform="translate(-203.946 8.472)" fill="#a4bcea"/>
        <path id="Path_113" data-name="Path 113" d="M809.773,334.853a23.934,23.934,0,0,1,24.758,4.059c8.58,7.657,10.311,20.147,12.48,31.441s6.532,23.869,17.176,28.223a44.75,44.75,0,0,1-14.419-.42l16.084,14.414-27.095-8.832c-8.5-2.772-17.435-5.578-26.24-4.013-14.588,2.593-24.744,16.307-38.756,21.125l1.557-7.6-9.4-.072a18.411,18.411,0,0,0,5.386-6.31,5.213,5.213,0,0,0-3.6-1.881c-3.919-24.442,10.6-48.6,29.511-64.573,3.72-3.141,7.837-6.158,12.643-6.944s10.415,1.363,12.086,5.936" transform="translate(-201.722 25.921)" fill="#2f2e41"/>
        <path id="Path_114" data-name="Path 114" d="M310.2,614.159c0,51.422,32.26,93.033,72.127,93.033" transform="translate(-112.557 -29.379)" fill="#3f3d56"/>
        <path id="Path_115" data-name="Path 115" d="M399.987,706.937c0-52,36-94.078,80.489-94.078" transform="translate(-130.126 -29.123)" fill="#a4bcea"/>
        <path id="Path_116" data-name="Path 116" d="M342.729,619.963c0,48.846,20.571,88.371,45.994,88.371" transform="translate(-118.933 -30.52)" fill="#a4bcea"/>
        <path id="Path_117" data-name="Path 117" d="M399.987,700.537c0-66.445,41.61-120.211,93.033-120.211" transform="translate(-130.12 -22.723)" fill="#3f3d56"/>
        <path id="Path_118" data-name="Path 118" d="M381.1,729.439s10.229-.315,13.311-2.51,15.734-4.816,16.5-1.3,15.372,17.51,3.824,17.6-26.833-1.8-29.91-3.673S381.1,729.439,381.1,729.439Z" transform="translate(-126.446 -50.97)" fill="#a8a8a8"/>
        <path id="Path_119" data-name="Path 119" d="M414.937,743.361c-11.548.093-26.833-1.8-29.91-3.673-2.343-1.427-3.277-6.549-3.589-8.911l-.341.013s.648,8.25,3.725,10.124,18.361,3.766,29.91,3.673c3.333-.027,4.485-1.213,4.422-2.969C418.69,742.678,417.419,743.341,414.937,743.361Z" transform="translate(-126.446 -52.32)" opacity="0.2"/>
        <g id="Group_7-2" data-name="Group 7" transform="translate(218.692 190.469)">
          <g id="Group_6" data-name="Group 6">
            <g id="Group_5" data-name="Group 5">
              <path id="Rectangle_136" data-name="Rectangle 136" d="M0,0H339.167V229.719H0Z" fill="#a4bcea"/>
              <rect id="Rectangle_137" data-name="Rectangle 137" width="100.427" height="109.448" transform="translate(21.649 21.047)" fill="#f2f2f2"/>
              <path id="Path_88" data-name="Path 88" d="M401.026,314.161a1.474,1.474,0,0,0,1.728-.714c1.389-2.188-1.168-5.01-.615-7.543.444-2.029,2.749-3.233,3.22-5.255.458-1.965-.953-4.18,0-5.958.747-1.393,2.614-1.76,4.176-1.516s3.044.931,4.622,1.027c2.1.128,4.107-.8,6.163-1.256s4.564-.279,5.773,1.446c1.553,2.214-.022,5.3.518,7.948.429,2.1,2.191,3.847,2.229,5.994.013.763-1.993.148-1.886.9s-.842.09-.084,0a1.5,1.5,0,0,0,1.141-1.357c.09-.63,1.273-.839,1.26-1.475-.032-1.49,2.662-.485,3.106-1.908a14.43,14.43,0,0,0-.59-10.067,20.163,20.163,0,0,1-1.719-4.094c-.4-1.976.227-4.1-.426-6-.88-2.569-3.791-3.879-6.493-4.145s-5.449.21-8.136-.182c-2.407-.351-4.738-1.395-7.166-1.244-2.914.181-5.449,2.059-7.468,4.166s-3.733,4.532-6.027,6.338a11.822,11.822,0,0,0-1.932,1.664,6.491,6.491,0,0,0-.962,5.264c.325,1.813,1.032,3.542,1.331,5.359.281,1.708.194,3.453.315,5.179a9.1,9.1,0,0,0,1.519,4.889,4.614,4.614,0,0,0,3.59,1.876c.486.011.9-.426,1.387-.312C400.214,313.33,400.481,313.912,401.026,314.161Z" transform="translate(-347.038 -242.863)" fill="#2f2e41"/>
              <path id="Path_89" data-name="Path 89" d="M375.913,392.869c.439-6.02.77-10.518.77-10.518l2.838-7.481,9.111,18Z" transform="translate(-344.01 -261.773)" fill="#575a89"/>
              <path id="Path_90" data-name="Path 90" d="M375.913,392.869c.439-6.02.77-10.518.77-10.518l2.838-7.481,9.111,18Z" transform="translate(-344.01 -261.773)" opacity="0.1"/>
              <path id="Path_91" data-name="Path 91" d="M402.2,322.308s8.5,21.624,3.6,25.743,27.288-6.951,27.288-6.951l-.772-2.832s-10.555-4.119-5.406-15.961S402.2,322.308,402.2,322.308Z" transform="translate(-349.181 -250.397)" fill="#a0616a"/>
              <path id="Path_92" data-name="Path 92" d="M402.2,322.308s8.5,21.624,3.6,25.743,27.288-6.951,27.288-6.951l-.772-2.832s-10.555-4.119-5.406-15.961S402.2,322.308,402.2,322.308Z" transform="translate(-349.181 -250.397)" opacity="0.1"/>
              <circle id="Ellipse_5" data-name="Ellipse 5" cx="18.02" cy="18.02" r="18.02" transform="translate(47.095 44.623)" fill="#a0616a"/>
              <path id="Path_93" data-name="Path 93" d="M453.071,356.668s-.072,1.431-.2,3.933c-.259,5.094-.722,14.637-1.185,25.648H381.834a34.635,34.635,0,0,1-4.444-7.956,8.585,8.585,0,0,1-.523-2.562c-.385-6.825,5.731-16.351,10.049-17.259,4.889-1.034,14.156-10.812,14.156-10.812a2.2,2.2,0,0,0,1.179,1.78v.006a4.791,4.791,0,0,0,2.423.529c3.019,0,16.3-6.128,20.56-8.13.836-.391,1.323-.625,1.323-.625a99.926,99.926,0,0,0,15.19,5.154,16.156,16.156,0,0,1,11.323,10.3Z" transform="translate(-344.194 -255.153)" fill="#575a89"/>
              <path id="Path_94" data-name="Path 94" d="M397.18,311.918a1.474,1.474,0,0,0,1.728-.714c1.389-2.188-1.168-5.01-.615-7.543.444-2.029,2.749-3.233,3.22-5.255.458-1.965-.953-4.18,0-5.958.747-1.393,2.614-1.76,4.176-1.516s3.044.931,4.622,1.027c2.1.128,4.107-.8,6.163-1.256s4.564-.279,5.773,1.446c1.553,2.214-.022,5.3.518,7.948.429,2.1,5.322,3.581,5.765,2.158a14.43,14.43,0,0,0-.59-10.066,20.164,20.164,0,0,1-1.719-4.094c-.4-1.976.227-4.1-.426-6-.88-2.569-3.791-3.879-6.493-4.145s-5.449.21-8.136-.182c-2.407-.351-4.738-1.395-7.166-1.244-2.913.181-5.449,2.059-7.468,4.166s-3.733,4.532-6.026,6.338a11.82,11.82,0,0,0-1.932,1.663,6.491,6.491,0,0,0-.962,5.264c.325,1.813,1.032,3.542,1.331,5.359.281,1.708.194,3.453.315,5.179a9.1,9.1,0,0,0,1.519,4.889,4.614,4.614,0,0,0,3.59,1.876c.486.011.9-.426,1.387-.312C396.368,311.086,396.635,311.669,397.18,311.918Z" transform="translate(-346.281 -242.422)" fill="#2f2e41"/>
              <path id="Path_95" data-name="Path 95" d="M477.169,390.032H456.783c-1.552-11.378-2.832-23.273-2.832-23.273l4.119-1.8,8.371-4.5s.613,1.455,1.6,3.933C470.145,369.682,473.964,379.653,477.169,390.032Z" transform="translate(-359.362 -258.936)" opacity="0.1"/>
              <path id="Path_96" data-name="Path 96" d="M477.8,389.339H454.793c-3.41-12.448-6.771-25.979-6.771-25.979l8.756-6.435,10.3,2.832S473.1,374.1,477.8,389.339Z" transform="translate(-358.196 -258.243)" fill="#575a89"/>
              <rect id="Rectangle_138" data-name="Rectangle 138" width="96.818" height="6.615" transform="translate(184.016 21.047)" fill="#2f2e41"/>
              <rect id="Rectangle_141" data-name="Rectangle 141" width="139.516" height="6.615" transform="translate(161.165 45.102)" fill="#f2f2f2"/>
              <rect id="Rectangle_142" data-name="Rectangle 142" width="139.516" height="6.615" transform="translate(161.165 63.744)" fill="#f2f2f2"/>
              <rect id="Rectangle_143" data-name="Rectangle 143" width="139.516" height="6.615" transform="translate(161.165 82.386)" fill="#f2f2f2"/>
              <rect id="Rectangle_144" data-name="Rectangle 144" width="139.516" height="6.615" transform="translate(161.165 101.028)" fill="#f2f2f2"/>
              <rect id="Rectangle_145" data-name="Rectangle 145" width="139.516" height="6.615" transform="translate(161.165 119.671)" fill="#f2f2f2"/>
              <rect id="Rectangle_146" data-name="Rectangle 146" width="139.516" height="6.615" transform="translate(161.165 138.313)" fill="#f2f2f2"/>
              <rect id="Rectangle_147" data-name="Rectangle 147" width="139.516" height="6.615" transform="translate(161.165 156.954)" fill="#f2f2f2"/>
            </g>
            <path id="Path_99" data-name="Path 99" d="M709.13,427.6l-26.545,26.547-11.158-11.158a3.815,3.815,0,0,0-5.394,0h0a3.814,3.814,0,0,0,0,5.394l14.478,14.478a2.91,2.91,0,0,0,4.114,0l29.9-29.867a3.813,3.813,0,0,0,0-5.394h0a3.813,3.813,0,0,0-5.392,0Z" transform="translate(-400.865 -255.67)" fill="#57b894"/>
          </g>
          <ellipse id="Ellipse_4" data-name="Ellipse 4" cx="39.69" cy="4.21" rx="39.69" ry="4.21" transform="translate(250.166 203.665)" opacity="0.1"/>
        </g>
        <text id="Employee" transform="translate(23 214)" font-size="16" font-family="SegoeUI-Semibold, Segoe UI" font-weight="600"><tspan x="0" y="0">Employee</tspan></text>
        <text id="Agent" transform="translate(612.746 214)" font-size="16" font-family="SegoeUI-Semibold, Segoe UI" font-weight="600"><tspan x="0" y="0">Agent</tspan></text>
        <text id="Employer" transform="translate(241.303 343)" font-size="16" font-family="SegoeUI-Semibold, Segoe UI" font-weight="600"><tspan x="0" y="0">Employer</tspan></text>
      </g>
    </g>
  </g>
</svg>
